<svg xmlns="http://www.w3.org/2000/svg" viewBox="0 0 100 100" width="100" height="100" fill="none" stroke="white" stroke-width="2.5" stroke-linecap="round" stroke-linejoin="round">
  <!-- Open book -->
  <path d="M15,25 C15,20 18,15 25,15 L45,15 C50,15 50,20 50,25 L50,75 C50,70 47,65 40,65 L20,65 C17,65 15,68 15,70 Z" />
  <path d="M85,25 C85,20 82,15 75,15 L55,15 C50,15 50,20 50,25 L50,75 C50,70 53,65 60,65 L80,65 C83,65 85,68 85,70 Z" />
  
  <!-- Book pages lines -->
  <path d="M30,30 L40,30" />
  <path d="M25,35 L40,35" />
  <path d="M60,30 L70,30" />
  <path d="M60,35 L75,35" />
  
  <!-- Hand touching the book -->
  <path d="M45,65 C40,60 40,55 45,50 C50,45 55,50 55,55 L55,70" />
  <path d="M55,55 C60,50 65,55 65,60 L65,75" />
  <path d="M65,60 C70,55 75,60 75,65 L75,80" />
  <path d="M45,75 C40,75 35,80 35,85" />
</svg> 