<?xml version="1.0" standalone="no"?>
<!DOCTYPE svg PUBLIC "-//W3C//DTD SVG 20010904//EN"
 "http://www.w3.org/TR/2001/REC-SVG-20010904/DTD/svg10.dtd">
<svg version="1.0" xmlns="http://www.w3.org/2000/svg"
 width="1024.000000pt" height="1024.000000pt" viewBox="0 0 1024.000000 1024.000000"
 preserveAspectRatio="xMidYMid meet">

<g transform="translate(0.000000,1024.000000) scale(0.100000,-0.100000)"
fill="#000000" stroke="none">
<path d="M4814 9519 c-553 -64 -1151 -436 -1438 -893 -217 -346 -289 -853
-194 -1370 l22 -119 -24 -16 c-58 -36 -118 -107 -140 -166 -35 -92 -40 -332
-10 -509 46 -270 139 -473 258 -559 26 -19 74 -44 107 -56 33 -13 65 -27 72
-33 8 -6 27 -56 45 -112 73 -238 193 -498 324 -702 60 -94 74 -124 74 -155 0
-82 -108 -245 -285 -427 -58 -60 -122 -121 -143 -136 -46 -31 -168 -86 -462
-206 -508 -208 -714 -312 -949 -478 -231 -163 -403 -375 -492 -607 -81 -209
-164 -629 -228 -1147 -59 -480 -62 -574 -20 -664 88 -187 469 -301 1379 -413
1075 -133 2376 -173 3580 -111 502 26 1198 90 1575 145 689 101 994 205 1093
373 37 64 40 172 12 417 -65 583 -176 1166 -261 1383 -174 440 -491 702 -1224
1015 -72 30 -233 96 -359 147 -126 50 -249 102 -275 114 -105 54 -430 431
-469 545 -20 57 -15 72 59 185 134 203 255 463 324 691 44 145 47 151 121 175
115 39 191 115 264 265 89 183 148 545 121 739 -18 130 -80 235 -166 284 -18
9 -18 15 -8 59 78 337 94 456 94 673 0 371 -75 631 -241 838 -117 146 -280
232 -495 261 -63 9 -73 13 -94 43 -47 64 -208 214 -286 267 -200 134 -439 219
-720 256 -125 16 -418 18 -541 4z m1246 -1485 c68 -149 167 -278 290 -378 116
-94 136 -124 173 -254 18 -68 21 -104 21 -312 1 -225 2 -237 23 -271 26 -41
59 -59 108 -59 53 0 84 20 121 77 54 84 120 85 162 3 19 -38 22 -60 22 -155 0
-248 -72 -484 -174 -571 -21 -18 -68 -43 -104 -55 -117 -39 -163 -101 -216
-289 -140 -498 -394 -850 -742 -1027 -182 -93 -328 -130 -549 -139 -230 -10
-425 31 -630 130 -351 170 -568 461 -755 1012 -32 94 -65 185 -74 201 -24 48
-79 89 -149 112 -81 27 -135 73 -176 150 -67 126 -100 259 -108 437 -8 178 22
255 102 254 37 -1 52 -12 93 -71 37 -54 76 -74 134 -66 51 7 96 49 108 100 4
20 3 75 -2 124 -20 174 7 416 57 512 26 51 76 101 124 125 93 46 123 49 556
51 439 2 572 10 775 51 203 41 351 97 495 190 77 49 189 147 228 199 30 41 32
42 41 22 5 -12 26 -59 46 -103z m-1870 -3419 c18 -22 156 -108 246 -153 101
-51 291 -115 403 -136 420 -80 836 1 1175 227 52 36 98 62 101 59 3 -3 5 -21
5 -41 0 -135 -335 -442 -730 -669 -104 -60 -159 -85 -212 -96 -155 -34 -717
330 -937 608 -69 87 -91 135 -84 180 6 39 14 44 33 21z m-190 -376 c126 -161
453 -443 623 -539 l59 -33 -64 -66 c-35 -36 -142 -148 -237 -248 -95 -101
-177 -183 -181 -183 -26 0 -440 853 -440 907 0 8 19 38 43 67 23 29 60 78 82
109 22 31 45 56 50 56 6 0 35 -32 65 -70z m2435 -43 l83 -109 -40 -86 c-22
-47 -66 -145 -98 -218 -73 -162 -139 -296 -238 -477 l-76 -138 -55 58 c-196
206 -411 438 -411 443 1 3 40 31 88 61 218 137 476 359 592 509 30 39 59 70
63 68 5 -1 46 -51 92 -111z m-2885 -393 c153 -369 464 -942 536 -990 39 -25
128 -24 176 2 20 11 94 82 164 158 70 76 130 134 134 130 4 -4 38 -77 75 -161
l68 -154 -40 -216 c-23 -120 -101 -534 -174 -922 -73 -388 -134 -707 -136
-709 -5 -7 -531 18 -848 40 -265 18 -795 66 -802 72 -1 2 6 131 17 287 11 157
22 353 26 435 6 147 6 151 -18 185 -30 44 -61 60 -118 60 -58 0 -107 -30 -126
-76 -10 -24 -20 -112 -29 -258 -30 -479 -38 -591 -41 -595 -5 -6 -211 24 -359
50 -233 43 -388 95 -440 149 -28 29 -28 30 -21 122 13 176 75 654 116 893 89
525 158 701 355 901 194 196 415 317 1054 574 135 54 271 110 301 124 30 14
60 25 66 25 6 1 35 -56 64 -126z m3346 86 c54 -22 198 -80 319 -129 530 -212
733 -318 926 -484 248 -213 343 -439 453 -1086 59 -345 106 -711 106 -820 0
-85 -47 -120 -236 -175 -159 -46 -566 -116 -582 -100 -4 3 -19 193 -33 421
-29 451 -28 445 -92 485 -41 26 -125 22 -165 -8 -60 -44 -59 -29 -28 -503 16
-237 26 -433 24 -436 -7 -7 -454 -50 -713 -68 -186 -14 -833 -46 -916 -46 -23
0 -27 5 -33 43 -3 23 -85 440 -182 926 l-175 884 67 156 c37 86 68 157 69 159
1 2 60 -60 131 -138 82 -89 144 -147 170 -160 78 -38 161 -19 215 50 71 90
360 641 510 973 24 53 49 97 55 97 6 0 55 -18 110 -41z m-1471 -480 c36 -45
65 -85 65 -90 0 -5 -34 -77 -75 -159 l-75 -150 -204 0 -203 0 -43 93 c-24 50
-56 120 -73 154 -20 43 -26 67 -20 75 5 7 35 46 67 86 l57 72 219 0 219 0 66
-81z m-130 -701 c4 -11 63 -314 241 -1233 86 -442 104 -539 98 -544 -8 -9
-805 -14 -900 -6 l-80 6 38 202 c21 111 84 450 139 752 55 303 112 614 126
693 l27 142 153 0 c114 0 155 -3 158 -12z"/>
</g>
</svg>
