<?xml version="1.0" standalone="no"?>
<!DOCTYPE svg PUBLIC "-//W3C//DTD SVG 20010904//EN"
 "http://www.w3.org/TR/2001/REC-SVG-20010904/DTD/svg10.dtd">
<svg version="1.0" xmlns="http://www.w3.org/2000/svg"
 width="1024.000000pt" height="1024.000000pt" viewBox="0 0 1024.000000 1024.000000"
 preserveAspectRatio="xMidYMid meet">

<g transform="translate(0.000000,1024.000000) scale(0.100000,-0.100000)"
fill="#000000" stroke="none">
<path d="M4840 9663 c-288 -175 -856 -519 -1345 -813 -416 -250 -530 -319
-775 -469 -121 -74 -137 -88 -155 -136 -23 -60 -14 -125 26 -169 25 -29 77
-53 333 -155 l303 -122 6 -376 c4 -207 7 -437 7 -512 l0 -136 -36 -24 c-115
-79 -235 -258 -269 -401 -41 -178 -5 -402 95 -587 100 -185 217 -289 347 -309
23 -3 46 -11 51 -18 4 -6 18 -45 31 -86 85 -274 316 -624 514 -777 l27 -21
-36 -71 c-75 -147 -227 -243 -610 -386 -272 -102 -350 -133 -460 -185 -544
-256 -873 -596 -1059 -1095 -87 -234 -165 -617 -200 -985 -34 -365 -33 -389
28 -448 139 -134 822 -283 1667 -362 1074 -100 2785 -91 3802 20 98 11 226 19
286 19 59 0 121 5 137 11 17 7 95 23 175 36 451 76 826 195 908 288 17 20 34
52 38 72 18 97 -93 926 -161 1200 l-26 102 64 118 c35 66 114 216 175 335 122
235 131 270 96 345 -31 66 -20 60 -979 494 -253 114 -532 241 -620 281 -130
59 -168 73 -207 72 -81 -1 -96 -17 -202 -212 -31 -58 -58 -106 -59 -108 -4 -3
-198 77 -247 102 -64 33 -154 98 -214 154 -57 55 -136 172 -136 203 0 9 30 45
66 80 194 186 347 424 453 707 l38 105 59 16 c89 25 122 46 204 130 321 329
337 850 34 1092 l-64 52 0 525 0 526 166 65 c91 36 170 67 175 68 5 2 9 -108
9 -256 l0 -259 -44 -94 c-125 -266 -164 -476 -108 -586 47 -91 174 -163 287
-163 114 0 248 75 294 165 23 45 26 61 25 160 0 101 -3 119 -38 220 -21 61
-56 148 -77 194 l-39 84 0 321 0 322 36 35 c80 76 85 177 11 249 -13 14 -150
97 -303 184 -434 248 -647 371 -1084 624 -223 129 -490 284 -595 345 -104 60
-249 144 -320 187 -192 114 -206 120 -272 120 -56 0 -64 -4 -233 -107z m710
-498 c476 -273 584 -335 675 -391 39 -23 133 -78 210 -122 77 -43 230 -131
340 -194 110 -63 256 -145 324 -183 90 -50 120 -71 110 -78 -8 -5 -86 -37
-174 -71 l-160 -63 -105 65 c-448 277 -928 424 -1510 463 -623 41 -1308 -125
-1833 -445 -60 -36 -113 -66 -118 -66 -17 0 -289 114 -289 122 0 4 10 13 23
19 22 12 851 504 982 584 39 23 183 109 320 191 138 81 360 214 495 294 l245
147 35 -23 c19 -12 213 -124 430 -249z m-2 -910 c391 -58 744 -184 1009 -362
l103 -68 0 -510 c0 -308 -5 -528 -11 -555 -14 -66 -41 -132 -49 -123 -12 13
-58 203 -70 288 -21 140 -68 305 -116 402 -75 152 -209 262 -355 292 -43 9
-64 20 -90 48 -53 56 -169 127 -250 154 -62 20 -93 24 -189 23 -124 0 -116 2
-331 -87 -170 -71 -460 -131 -874 -182 -472 -59 -623 -93 -744 -169 -22 -14
-43 -26 -46 -26 -3 0 -5 100 -5 223 l0 222 103 67 c314 205 706 337 1137 383
208 22 558 13 778 -20z m112 -733 c59 -30 100 -84 100 -135 0 -43 -37 -105
-104 -175 -179 -187 -452 -304 -901 -384 -115 -20 -161 -23 -400 -23 -210 1
-291 5 -365 18 -118 21 -173 21 -233 1 -73 -25 -126 -97 -161 -216 -9 -32 -21
-58 -25 -58 -14 0 -24 141 -19 249 7 117 32 190 90 256 99 113 189 139 698
205 538 69 843 140 1044 242 128 65 179 69 276 20z m485 -322 c33 -53 80 -260
58 -260 -17 0 -52 45 -77 100 -26 57 -52 192 -41 210 9 14 31 -4 60 -50z
m1319 -221 c16 -83 0 -138 -38 -123 -21 8 -21 61 0 114 19 48 29 50 38 9z
m-1475 -260 c70 -76 173 -137 249 -146 48 -5 49 -6 67 -57 31 -90 88 -188 143
-247 113 -122 237 -142 315 -50 33 39 47 89 47 165 l0 60 34 -33 c66 -64 107
-210 88 -312 -38 -203 -148 -329 -299 -342 -119 -10 -147 -36 -184 -169 -30
-108 -76 -232 -122 -323 -315 -633 -1020 -936 -1675 -719 -167 55 -322 135
-427 221 -111 91 -255 254 -330 372 -75 120 -162 325 -191 451 -9 36 -25 80
-36 99 -26 42 -88 70 -152 71 -98 0 -187 71 -245 194 -41 86 -54 159 -49 257
5 88 38 178 78 214 19 17 19 16 18 -47 0 -35 4 -80 11 -99 13 -41 63 -93 104
-108 133 -50 317 66 417 262 41 82 46 88 70 82 138 -36 631 -42 850 -11 423
61 815 217 1025 408 l50 46 41 -87 c27 -56 63 -109 103 -152z m-1704 -2353
c69 -47 334 -142 496 -177 140 -30 436 -33 579 -5 137 25 299 80 423 142 60
30 110 54 113 54 11 0 2 -90 -14 -136 -46 -132 -125 -223 -490 -566 -130 -122
-256 -240 -280 -262 l-42 -40 -73 70 c-39 39 -153 145 -252 236 -384 353 -479
476 -493 636 -5 64 0 71 33 48z m2945 -355 c0 -8 -31 -71 -69 -140 -38 -69
-171 -313 -296 -541 -125 -228 -313 -570 -418 -760 -104 -190 -217 -393 -249
-452 -33 -59 -62 -110 -66 -112 -4 -2 -38 10 -75 27 l-67 32 26 45 c156 268
437 779 754 1370 128 239 255 474 282 522 l49 87 65 -32 c35 -17 64 -38 64
-46z m-982 -13 c18 -12 22 -22 17 -40 -20 -65 -118 -288 -217 -490 l-112 -228
-25 17 c-28 18 -256 197 -280 219 -12 11 19 46 196 221 158 156 224 230 268
296 l57 87 37 -32 c20 -19 47 -41 59 -50z m-2203 -5 c58 -89 160 -205 312
-355 l139 -137 -163 -131 c-140 -112 -164 -127 -172 -112 -40 77 -281 695
-281 722 0 5 28 23 63 39 34 16 62 30 63 30 1 1 18 -25 39 -56z m3990 -349
c226 -103 422 -191 438 -197 15 -6 27 -15 27 -19 0 -8 -75 -149 -377 -713
-303 -565 -700 -1295 -709 -1304 -2 -3 -26 5 -52 16 -101 45 -957 435 -961
438 -1 2 31 64 72 137 80 144 194 353 557 1023 128 237 281 518 340 625 59
107 112 205 119 217 l11 23 63 -30 c34 -16 247 -114 472 -216z m-4415 165 c26
-88 161 -424 266 -663 90 -208 128 -258 202 -270 91 -14 83 -19 478 303 l148
121 89 -88 c184 -179 187 -182 257 -182 62 0 83 13 215 136 90 83 129 113 138
106 173 -136 481 -373 498 -382 30 -17 128 -8 162 14 20 14 70 104 195 355 93
185 196 395 229 468 l62 132 30 -10 c17 -6 31 -16 31 -21 0 -35 -434 -840
-750 -1393 -97 -170 -187 -329 -199 -352 -29 -59 -28 -128 3 -174 26 -38 76
-62 938 -460 137 -63 248 -117 248 -120 0 -14 -519 -36 -1188 -50 -837 -18
-1695 4 -2382 61 -336 28 -311 22 -304 73 2 23 16 195 29 382 14 187 30 399
37 470 6 72 8 147 4 167 -18 97 -127 147 -216 99 -64 -34 -71 -57 -90 -319
-57 -757 -62 -802 -84 -802 -101 0 -601 114 -721 165 l-37 15 6 87 c4 49 16
171 27 273 89 832 319 1256 857 1579 172 102 324 173 590 272 75 28 147 57
161 64 14 8 31 14 38 15 6 0 21 -32 33 -71z m4685 -1580 c28 -166 65 -482 68
-583 l2 -69 -95 -34 c-52 -19 -140 -46 -195 -60 -116 -29 -335 -72 -335 -66 0
3 86 161 192 351 105 191 223 406 262 478 39 73 72 131 74 129 2 -1 14 -67 27
-146z"/>
<path d="M1786 7490 c-95 -29 -135 -157 -74 -235 20 -26 381 -301 427 -325 38
-20 126 -8 157 21 54 50 70 117 44 180 -11 26 -220 191 -425 336 -37 26 -90
35 -129 23z"/>
<path d="M1555 6416 c-120 -53 -127 -234 -12 -287 38 -17 68 -19 292 -19 279
0 297 4 343 70 30 45 31 129 0 178 -40 65 -71 72 -348 71 -182 0 -253 -3 -275
-13z"/>
</g>
</svg>
